# xmcd CD Database Entry
#
# Track frame offsets:
# 150
# 8580
# 21642
# 38630
# 49195
# 57232
# 63410
# 77642
# 88470
# 96032
# 100527
# 107430
# 115617
# 124767
# 143130
# 147522
# 153282
# 163657
# 192230
# 200685
# 207265
# 215377
# 225412
#
# Disc length: 3197 seconds
#
# Revision: 2
# Processed by: cddbd v1.4PL0 Copyright (c) Steve Scherf et al.
# Submitted via: tcd 2.0b
#
DISCID=380c7b17
DTITLE=Segreis de Lisboa - Musica Maneirista Portuguesa
DYEAR=1900
DGENRE=
TTITLE0=Pues a dios humano vemos
TTITLE1=Ay de mim sin ventura
TTITLE2=2o. tento a quatro em sol
TTITLE3=Baxad senora los ojos
TTITLE4=[Oh] Dulce suspiro mio
TTITLE5=Tiento
TTITLE6=Venid a suspirar al verde prado
TTITLE7=Desperanca vos vestistes
TTITLE8=Dame [a]cogida en to hato
TTITLE9=Oy[u]elos graciosos
TTITLE10=Mira que negro amor y que nonada
TTITLE11=Con que le lavare
TTITLE12=Aquella voluntad que se ha rendido
TTITLE13=Cancao a quatro glosada
TTITLE14=Sabete Gil que me muero
TTITLE15=En la pena yunto la pena
TTITLE16=Qu[i]en te hizo yuan pastor
TTITLE17=Tierras mias ado nasci
TTITLE18=O manjar bivo dulce i provechoso
TTITLE19=De mi ventura quexoso
TTITLE20=O mas dura que marmor a mis quexas
TTITLE21=Fantasia a quatro do 1o. tom
TTITLE22=Flerida en cuja mano
EXTD=Cancioneiro Musical de Belem
EXTT0=
EXTT1=
EXTT2=
EXTT3=Baxad senora los ojos
EXTT4=
EXTT5=
EXTT6=
EXTT7=
EXTT8=
EXTT9=
EXTT10=
EXTT11=
EXTT12=
EXTT13=
EXTT14=
EXTT15=
EXTT16=
EXTT17=
EXTT18=
EXTT19=
EXTT20=
EXTT21=
EXTT22=
PLAYORDER=
